<svg width="39" height="70" viewBox="0 0 39 70" fill="none" xmlns="http://www.w3.org/2000/svg">
<path fill-rule="evenodd" clip-rule="evenodd" d="M37.9875 24.2682C37.8082 23.8683 37.4221 23.6117 36.9969 23.6117H24.0409L36.8275 2.63569C37.0406 2.28597 37.0536 1.84315 36.8613 1.48196C36.6689 1.11758 36.3015 0.892474 35.9034 0.892474H18.4101C17.9958 0.892474 17.6174 1.13534 17.4316 1.52066L1.03159 35.5996C0.86208 35.9514 0.880665 36.3691 1.07947 36.7041C1.27968 37.0392 1.63055 37.2423 2.01003 37.2423H13.2528L1.00203 67.4736C0.79314 67.9908 0.978945 68.5897 1.4393 68.8838C1.61619 68.9948 1.81302 69.0503 2.00895 69.0503C2.3226 69.0503 2.63206 68.91 2.84635 68.6472L37.8332 25.4806C38.1078 25.1424 38.1666 24.6692 37.9875 24.2682Z" fill="white"/>
</svg>
