<svg width="406" height="306" viewBox="0 0 406 306" fill="none" xmlns="http://www.w3.org/2000/svg">
<path opacity="0.24" d="M207.973 0.0397051C189.579 -0.497789 170.15 4.94351 157.787 18.5667C146.626 30.8627 142.538 48.0492 132.817 61.5197C118.424 81.4269 91.9741 93.066 85.1592 116.689C79.0012 138.023 91.6091 159.947 93.3941 182.078C94.7744 199.417 89.4127 216.703 90.2621 234.075C90.8408 244.53 93.6306 254.743 98.4474 264.041C103.264 273.338 109.998 281.508 118.205 288.01C133.952 300.326 154.317 305.701 174.304 305.987C194.29 306.272 214.052 301.806 233.209 296.093C249.019 291.398 264.541 285.779 279.692 279.265C287.522 275.88 295.326 272.191 302.008 266.876C321.458 251.388 328.173 221.919 317.343 199.536C311.637 187.758 301.882 178.236 296.66 166.232C287.788 145.853 293.402 122.403 291.816 100.233C289.825 72.3625 276.328 47.9497 263.382 23.8553C252.685 3.94151 229.964 0.683371 207.973 0.0397051Z" fill="#F1F2F7"/>
<path d="M137.197 264.593C135.591 264.885 133.686 265.476 133.308 267.062C132.784 269.298 135.684 270.645 137.953 271.043C168.829 276.451 200.449 274.978 231.749 273.352C236.726 273.093 241.756 272.821 246.56 271.461C247.728 271.129 249.029 270.592 249.414 269.437C249.798 268.282 249.055 267.028 248.206 266.119C243.674 261.348 236.308 261.023 229.725 261.023C213.348 261.023 196.965 261.109 180.588 260.983C173.839 260.937 167.316 260.831 160.535 261.421C152.791 262.105 144.894 264.281 137.197 264.593Z" fill="url(#paint0_linear)"/>
<path d="M171.776 149.861H136.58C133.117 149.861 130.309 152.669 130.309 156.132V182.025C130.309 185.488 133.117 188.295 136.58 188.295H171.776C175.239 188.295 178.047 185.488 178.047 182.025V156.132C178.047 152.669 175.239 149.861 171.776 149.861Z" fill="#606161"/>
<path d="M226.394 85.5212C226.394 85.5212 221.796 88.3015 217.376 81.5795C212.957 74.8575 200.787 54.2005 200.787 54.2005L208.279 53.1919C208.279 53.1919 232.639 73.5901 231.623 78.6399C231.333 80.1094 230.712 81.4932 229.805 82.6857C228.899 83.8783 227.732 84.8481 226.394 85.5212Z" fill="#BA816C"/>
<path d="M193.508 61.2013C193.508 61.2013 196.826 59.9803 199.54 60.6837C202.254 61.3871 229.52 74.0016 231.703 79.423C233.886 84.8444 230.562 89.6486 228.551 89.8278C226.54 90.007 218.598 89.4562 216.779 88.0561C214.961 86.6559 203.422 83.5504 203.422 83.5504L193.508 61.2013Z" fill="#00529E"/>
<path d="M192.904 60.8031C192.904 60.8031 196.222 59.5821 198.942 60.2855C201.663 60.9889 228.923 73.5968 231.106 79.0182C233.289 84.4396 229.958 89.2505 227.947 89.423C225.936 89.5955 217.994 89.058 216.182 87.6579C214.37 86.2577 202.818 83.1522 202.818 83.1522L192.904 60.8031Z" fill="url(#paint1_linear)"/>
<path d="M205.153 59.3368C204.724 59.7154 204.428 60.2229 204.311 60.7834C204.307 61.1105 204.368 61.4352 204.49 61.7389C206.789 68.519 210.259 74.8435 214.742 80.4251C217.357 83.6766 224.47 90.7039 228.551 89.828C231.524 89.1644 232.227 85.1033 233.143 82.2035C233.566 81.1464 233.62 79.9772 233.296 78.8856C232.957 77.658 230.309 73.6368 229.5 72.6613C225.645 68.0163 221.769 63.3713 217.383 59.1974C215.89 57.7774 212.559 53.7893 210.482 53.4973C208.405 53.2054 206.514 57.8371 205.153 59.3368Z" fill="#00529E"/>
<path d="M205.001 59.3368C204.571 59.7154 204.275 60.2229 204.158 60.7834C204.153 61.1113 204.217 61.4366 204.344 61.7389C206.64 68.5202 210.11 74.8451 214.596 80.4251C217.21 83.6766 224.317 90.7039 228.398 89.828C231.371 89.1644 232.074 85.1033 232.997 82.2035C233.422 81.1464 233.473 79.976 233.143 78.8856C232.811 77.658 230.163 73.6368 229.347 72.6613C225.492 68.0163 221.617 63.3713 217.237 59.1974C215.737 57.7774 212.406 53.7893 210.329 53.4973C208.252 53.2054 206.361 57.8371 205.001 59.3368Z" fill="url(#paint2_linear)"/>
<path d="M174.662 58.0692C174.662 58.0692 163.103 63.0792 161.743 64.2139C160.528 65.2292 163.82 134.672 164.078 138.063C164.337 141.454 182.838 142.005 190.847 140.478C196.188 139.379 201.413 137.78 206.454 135.701C206.454 135.701 203.169 69.9604 202.367 66.2577C201.039 60.2192 190.528 56.689 190.528 56.689L174.662 58.0692Z" fill="#00529E"/>
<path d="M206.54 135.707C206.517 135.726 206.489 135.739 206.46 135.747C201.45 137.806 196.258 139.392 190.953 140.485C186.155 141.401 177.602 141.573 171.457 140.843C168.139 140.439 165.571 139.782 164.589 138.853C164.367 138.655 164.223 138.384 164.184 138.089C164.032 136.019 162.731 109.443 162.028 88.7529C161.583 75.4814 161.364 64.632 161.835 64.2471C163.202 63.046 174.762 58.0692 174.762 58.0692L190.634 56.6824C190.634 56.6824 199.573 60.2126 200.495 66.0786C202.426 78.5206 206.54 135.707 206.54 135.707Z" fill="url(#paint3_linear)"/>
<path d="M189.758 59.1311L193.959 63.7363L192.758 66.8351L194.748 69.2373L187.642 91.3608C187.642 91.3608 190.648 67.6381 189.447 64.1875C188.734 62.2825 188.475 60.2378 188.69 58.2153L189.758 59.1311Z" fill="#00529E"/>
<path d="M196.175 250.897C196.175 250.897 195.054 260.034 195.664 261.076C196.275 262.118 199.838 261.773 202.035 261.176C204.231 260.578 204.762 257.088 204.762 257.088L204.908 254.208L196.175 250.897Z" fill="white"/>
<path d="M158.69 247.035C158.69 247.035 157.004 257.884 157.562 258.827C158.119 259.769 162.253 257.46 164.596 257.168C166.938 256.876 167.144 253.127 167.144 253.127L167.542 250.698L158.69 247.035Z" fill="white"/>
<path d="M174.151 51.2544C174.151 51.2544 175.173 58.6532 174.364 61.3938C173.554 64.1343 179.108 68.4277 184.656 67.638C189.905 66.8882 189.301 63.8689 189.42 62.7541C189.54 61.6393 187.894 60.9293 188.704 58.1887C189.513 55.4482 175.014 47.9631 174.151 51.2544Z" fill="#BA816C"/>
<path d="M177.044 65.435C177.044 65.435 181.65 67.7376 184.954 66.5365C186.866 65.8836 188.461 64.5327 189.42 62.7542L189.055 75.7469L187.728 92.1637L184.025 87.2533L177.044 65.435Z" fill="white"/>
<path d="M188.703 58.1888C188.079 60.3056 188.902 61.208 189.267 62.0242C187.934 63.1303 186.24 63.7067 184.509 63.6433C181.192 63.3381 176.394 60.0999 174.615 54.8775L174.529 54.5922C174.377 52.7209 174.171 51.2743 174.171 51.2743C175.014 47.9631 189.513 55.4548 188.703 58.1888Z" fill="#A6634C"/>
<path d="M189.155 69.0714C190.609 65.914 190.787 62.3172 189.652 59.0315C189.375 59.1497 189.13 59.3314 188.937 59.5619C188.743 59.7925 188.606 60.0654 188.538 60.3586C188.497 60.6999 188.482 61.0437 188.491 61.3872C188.368 62.5656 187.865 63.672 187.058 64.5392C186.611 65.0182 186.127 65.4619 185.611 65.8663C184.881 66.4768 184.855 66.6095 185.757 66.9745C187.04 67.3933 188.205 68.1122 189.155 69.0714V69.0714Z" fill="white"/>
<path d="M164.635 138.096L162.333 184.971L157.927 249.921C157.927 249.921 160.462 252.967 167.761 253.06L180.886 186.955L187.051 153.358L192.36 186.132L194.576 254.387C194.576 254.387 199.732 254.493 206.421 255.091L210.76 187.791L206.454 135.707L164.635 138.096Z" fill="#00529E"/>
<path d="M210.747 187.778L206.407 255.091C204.742 254.945 203.169 254.838 201.762 254.732C197.476 254.454 194.556 254.387 194.556 254.387L192.34 186.139L187.031 153.352L180.867 186.948L167.748 253.067C165.336 253.093 162.944 252.642 160.707 251.74C159.654 251.346 158.7 250.725 157.914 249.921L162.306 184.958L164.602 138.806L164.642 138.103L171.703 137.698L206.474 135.674V135.707L210.747 187.778Z" fill="#24285B"/>
<path d="M194.012 36.742C194.012 36.742 193.82 51.3406 192.353 55.1429C190.887 58.9452 187.237 61.991 183.892 61.6924C180.548 61.3938 175.777 58.1489 173.999 52.9266C172.22 47.7042 172.214 35.3419 172.924 33.7161C173.634 32.0904 177.469 27.1269 186.301 28.7393C192.386 29.8541 194.211 34.5124 194.012 36.742Z" fill="#BA816C"/>
<path d="M173.182 43.2981C173.182 43.2981 172.93 39.9006 170.594 40.8163C168.259 41.7321 170.501 48.1156 171.563 48.7792C172.038 49.1323 172.6 49.3481 173.189 49.403" fill="#BA816C"/>
<path d="M200.814 54.2006C200.814 54.2006 197.264 51.9843 196.746 50.9358C196.228 49.8874 193.561 41.314 195.558 40.8694C197.555 40.4248 204.722 43.8887 205.226 44.1077C205.731 44.3267 208.305 53.192 208.305 53.192L200.814 54.2006Z" fill="#BA816C"/>
<path d="M153.016 110.677L154.31 133.518L148.975 141.945L142.227 110.219L153.016 110.677Z" fill="#BA816C"/>
<path d="M162.3 63.8489C162.3 63.8489 154.768 68.1488 153.474 73.8489C152.18 79.549 137.907 106.875 142.087 110.491L143.494 111.739C144.374 112.517 145.483 112.988 146.654 113.08C147.824 113.172 148.993 112.881 149.984 112.25L153.123 110.259L156.115 102.25L165.08 84.0215C165.08 84.0215 165.93 67.6711 162.3 63.8489Z" fill="#00529E"/>
<path d="M159.665 146.165C158.809 146.763 155.372 148.428 154.503 147.745C154.138 147.466 153.176 146.484 152.2 145.422C151.682 144.911 151.172 144.354 150.727 143.843C149.745 142.794 148.975 141.945 148.975 141.945C148.975 141.945 151.065 132.283 154.284 133.518C155.398 133.834 156.482 134.249 157.522 134.759C158.059 135.097 159.101 139.317 159.572 142.542C159.69 143.269 159.768 144.003 159.805 144.739C159.898 145.508 159.831 146.039 159.665 146.165Z" fill="#BA816C"/>
<path d="M193.66 39.3167L200.668 45.1163C200.877 45.3426 201.031 45.6144 201.117 45.9104C201.204 46.2063 201.22 46.5183 201.165 46.8217C201.066 48.0227 199.765 54.121 199.765 54.121L193.362 49.2172L193.66 39.3167Z" fill="#606161"/>
<path d="M150.727 143.843C151.172 144.354 151.682 144.911 152.2 145.422C151.419 145.895 150.773 146.56 150.324 147.356C149.875 148.151 149.639 149.048 149.639 149.961H147.502C147.503 148.756 147.797 147.569 148.359 146.503C148.921 145.438 149.733 144.524 150.727 143.843V143.843Z" fill="#606161"/>
<path d="M166.255 149.961H164.118C164.121 148.728 163.695 147.532 162.913 146.58C162.131 145.627 161.041 144.976 159.831 144.738C159.795 144.003 159.717 143.269 159.599 142.542C161.426 142.746 163.114 143.614 164.341 144.983C165.569 146.351 166.25 148.123 166.255 149.961V149.961Z" fill="#606161"/>
<path d="M150.727 143.843C151.172 144.354 151.682 144.911 152.2 145.422C151.419 145.895 150.773 146.56 150.324 147.356C149.875 148.151 149.639 149.048 149.639 149.961H147.502C147.503 148.756 147.797 147.569 148.359 146.503C148.921 145.438 149.733 144.524 150.727 143.843V143.843Z" fill="url(#paint4_linear)"/>
<path d="M159.599 142.542C161.422 142.75 163.105 143.621 164.329 144.989C165.552 146.356 166.23 148.126 166.235 149.961" fill="url(#paint5_linear)"/>
<path d="M146.526 136.105C146.545 136.385 146.655 136.65 146.838 136.862C147.043 137.024 147.294 137.117 147.555 137.127C149.464 137.371 151.404 137.07 153.149 136.258C153.953 135.943 154.624 135.359 155.047 134.606C155.498 133.617 155.186 132.476 154.934 131.414C153.156 123.949 154.795 116.046 153.52 108.474C153.587 108.905 143.773 105.694 143.016 105.773C139.698 106.132 142.406 113.106 142.844 115.548L146.526 136.105Z" fill="#00529E"/>
<path d="M165.08 84.2338L156.122 102.475L153.607 109.231C154.715 116.636 153.202 124.314 154.934 131.606C155.193 132.675 155.511 133.823 155.06 134.805C154.635 135.554 153.965 136.135 153.162 136.45C151.414 137.266 149.47 137.57 147.555 137.326C147.299 137.321 147.051 137.23 146.852 137.068C146.66 136.855 146.548 136.583 146.533 136.298C145.312 129.459 144.083 122.602 142.844 115.727C142.585 114.36 141.649 111.586 141.43 109.35C141.43 109.116 141.417 108.894 141.391 108.686C140.92 101.314 152.326 79.131 153.481 74.0413C154.808 68.3479 162.313 64.0347 162.313 64.0347C165.89 67.8768 165.08 84.2338 165.08 84.2338Z" fill="url(#paint6_linear)"/>
<path d="M174.662 58.0691L187.754 92.1834L175.644 78.4674L176.547 72.263L172.34 68.8588L171.344 59.2503C171.344 59.2503 173.985 55.9656 174.662 58.0691Z" fill="#00529E"/>
<path d="M174.589 57.9764L187.755 92.1637L175.644 78.4477L176.474 72.1703L172.267 68.7661L171.238 59.1576C171.238 59.1576 173.893 55.8862 174.589 57.9764Z" fill="url(#paint7_linear)"/>
<path d="M182.18 66.7355L181.955 69.9671L183.527 71.2411L183.302 84.5258L187.754 92.1569L188.458 82.1503L185.332 71.3141L186.308 68.9916L184.954 66.5364L182.18 66.7355Z" fill="#606161"/>
<path d="M182.18 66.7355L181.955 69.9671L183.527 71.2411L183.302 84.5258L187.754 92.1569L188.458 82.1503L185.332 71.3141L186.308 68.9916L184.954 66.5364L182.18 66.7355Z" fill="#8CA5BB"/>
<path d="M183.554 66.7887C182.479 66.8418 180.097 68.3813 179.413 69.2107C178.775 70.0674 178.257 71.0073 177.874 72.0044C176.049 69.1643 175.571 65.6938 175.146 62.3428C174.908 61.0648 174.755 59.7724 174.688 58.4741C175.352 58.7064 175.704 60.2658 176.016 60.8962C176.506 61.8052 177.07 62.6729 177.701 63.4907C178.326 64.3128 179.018 65.0809 179.771 65.7867C180.196 66.1782 182.996 66.8219 183.554 66.7887Z" fill="white"/>
<path d="M193.979 28.2549C194.577 29.376 194.706 30.6885 194.337 31.9045C194.272 32.1707 194.144 32.4174 193.964 32.624C193.783 32.8307 193.557 32.9912 193.302 33.0923C192.873 33.1617 192.433 33.0992 192.041 32.9132L189.891 32.1501C189.183 31.8576 188.437 31.6698 187.675 31.5927C186.91 31.5811 186.149 31.7116 185.432 31.9775C183.162 32.7406 180.973 34.1142 178.584 33.9682C177.734 33.9085 176.825 33.6564 176.056 34.0346C175.7 34.2614 175.401 34.5653 175.179 34.9237C174.957 35.2821 174.819 35.6859 174.775 36.105C174.377 38.0957 174.775 40.2125 174.509 42.2496C174.476 42.4952 174.383 42.8004 174.138 42.8402C174.022 42.8493 173.907 42.8239 173.806 42.7672C173.104 42.2958 172.439 41.7724 171.815 41.2012C171.683 41.084 171.529 40.9944 171.362 40.9376C171.195 40.8808 171.018 40.8579 170.842 40.8702C170.666 40.8826 170.494 40.93 170.336 41.0096C170.179 41.0892 170.039 41.1995 169.924 41.3339C169.261 39.2636 167.675 37.1534 167.197 35.0233C166.719 32.8933 167.144 30.3252 168.975 29.1308C169.136 29.0441 169.278 28.9269 169.393 28.7857C169.516 28.5371 169.553 28.2549 169.499 27.9828C169.36 25.2024 171.49 22.6742 174.005 21.5395C176.52 20.4048 179.433 20.3716 182.214 20.5309C184.297 20.6437 186.46 20.8892 188.245 21.9841C189.573 22.787 190.236 23.9748 191.198 25.1361C192.16 26.2973 193.322 26.9676 193.979 28.2549Z" fill="#606161"/>
<path d="M193.979 28.2549C194.577 29.376 194.706 30.6885 194.337 31.9045C194.272 32.1707 194.144 32.4174 193.964 32.624C193.783 32.8307 193.557 32.9912 193.302 33.0923C192.873 33.1617 192.433 33.0992 192.041 32.9132L189.891 32.1501C189.183 31.8576 188.437 31.6698 187.675 31.5927C186.91 31.5811 186.149 31.7116 185.432 31.9775C183.162 32.7406 180.973 34.1142 178.584 33.9682C177.734 33.9085 176.825 33.6564 176.056 34.0346C175.7 34.2614 175.401 34.5653 175.179 34.9237C174.957 35.2821 174.819 35.6859 174.775 36.105C174.377 38.0957 174.775 40.2125 174.509 42.2496C174.476 42.4952 174.383 42.8004 174.138 42.8402C174.022 42.8493 173.907 42.8239 173.806 42.7672C173.104 42.2958 172.439 41.7724 171.815 41.2012C171.683 41.084 171.529 40.9944 171.362 40.9376C171.195 40.8808 171.018 40.8579 170.842 40.8702C170.666 40.8826 170.494 40.93 170.336 41.0096C170.179 41.0892 170.039 41.1995 169.924 41.3339C169.261 39.2636 167.675 37.1534 167.197 35.0233C166.719 32.8933 167.144 30.3252 168.975 29.1308C169.136 29.0441 169.278 28.9269 169.393 28.7857C169.516 28.5371 169.553 28.2549 169.499 27.9828C169.36 25.2024 171.49 22.6742 174.005 21.5395C176.52 20.4048 179.433 20.3716 182.214 20.5309C184.297 20.6437 186.46 20.8892 188.245 21.9841C189.573 22.787 190.236 23.9748 191.198 25.1361C192.16 26.2973 193.322 26.9676 193.979 28.2549Z" fill="url(#paint8_linear)"/>
<path d="M172.094 44.8908C172.034 44.3466 172.426 43.8158 172.333 43.2783C172.267 43.0235 172.113 42.8005 171.898 42.6496C171.682 42.4986 171.42 42.4298 171.158 42.4555C171.059 42.4592 170.962 42.4841 170.873 42.5284C170.548 42.6943 170.488 43.1323 170.495 43.4973C170.438 44.8703 170.868 46.2192 171.709 47.3062C171.784 47.4176 171.883 47.5118 171.997 47.5827C172.111 47.6536 172.239 47.6996 172.373 47.7176C172.738 47.7176 172.996 47.3327 173.036 46.9677C173.076 46.6028 173.176 45.9923 172.87 45.7667C172.565 45.5411 172.154 45.4614 172.094 44.8908Z" fill="url(#paint9_linear)"/>
<path d="M187.754 92.1571L189.758 137.101L191.358 136.696L188.657 88.7529L187.754 92.1571Z" fill="url(#paint10_linear)"/>
<path d="M180.183 149.861H144.987C141.524 149.861 138.716 152.669 138.716 156.132V182.025C138.716 185.488 141.524 188.295 144.987 188.295H180.183C183.646 188.295 186.454 185.488 186.454 182.025V156.132C186.454 152.669 183.646 149.861 180.183 149.861Z" fill="#606161"/>
<path d="M180.183 149.861H144.987C141.524 149.861 138.716 152.669 138.716 156.132V182.025C138.716 185.488 141.524 188.295 144.987 188.295H180.183C183.646 188.295 186.454 185.488 186.454 182.025V156.132C186.454 152.669 183.646 149.861 180.183 149.861Z" fill="url(#paint11_linear)"/>
<path d="M203.136 58.6797C203.044 58.814 202.978 58.965 202.943 59.1243C202.95 59.3114 202.996 59.495 203.078 59.6631C203.16 59.8312 203.277 59.98 203.421 60.0997C203.793 60.5045 204.357 60.9425 204.828 60.6638C204.992 60.5432 205.126 60.3865 205.219 60.2059C205.943 59.0121 206.727 57.8559 207.568 56.742C208.232 55.8661 210.044 54.8973 210.322 53.809C210.468 53.2583 209.606 52.681 208.889 52.8137C208.053 52.9729 206.666 54.6451 206.042 55.2291C204.917 56.238 203.939 57.3995 203.136 58.6797V58.6797Z" fill="white"/>
<path d="M148.172 138.255C149.256 138.352 150.349 138.239 151.391 137.924C151.835 137.784 152.267 137.618 152.718 137.446C153.932 136.961 155.206 136.437 155.996 135.402C156.072 135.32 156.118 135.215 156.129 135.103C156.122 135.005 156.087 134.911 156.029 134.831L155.366 133.644C155.248 134.044 155.05 134.416 154.783 134.737C154.516 135.058 154.186 135.32 153.813 135.508C153.062 135.874 152.265 136.136 151.444 136.285L148.491 136.948C148.192 137.015 147.787 137.041 147.721 137.393C147.655 137.744 147.88 138.255 148.172 138.255Z" fill="white"/>
<path d="M195.657 266.809C198.151 267.097 200.617 267.59 203.03 268.283C202.963 267.573 203.125 266.861 203.494 266.252C204.158 267.579 205.949 267.785 207.443 267.825L218.06 268.123C218.698 268.218 219.349 268.076 219.891 267.725C220.12 267.479 220.297 267.19 220.411 266.874C220.525 266.558 220.574 266.222 220.555 265.887C220.694 262.702 219.526 259.085 216.573 257.805C214.861 257.061 212.91 257.261 211.046 257.387C206.5 257.692 201.557 256.186 197.177 256.637C194.589 256.909 194.941 256.597 194.795 259.503C194.682 261.879 195.206 264.48 195.657 266.809Z" fill="#606161"/>
<path d="M154.503 265.144C154.542 266.315 154.935 267.446 155.631 268.389C156.6 269.557 158.152 270.048 159.612 270.346C161.773 270.784 163.98 270.944 166.182 270.824C168.04 270.724 170.057 270.333 171.271 268.92C171.715 268.368 172.031 267.725 172.196 267.036C172.362 266.348 172.372 265.631 172.227 264.938C171.923 263.551 171.233 262.279 170.236 261.269C169.247 260.213 167.92 259.132 167.92 257.698C167.992 257.233 168.014 256.762 167.987 256.292C167.847 255.886 167.575 255.538 167.213 255.306C166.852 255.074 166.423 254.97 165.996 255.011C165.154 255.104 164.328 255.31 163.541 255.622C162.12 256.045 160.614 256.095 159.168 255.767C157.94 255.469 157.376 254.706 156.447 255.701C155.611 256.59 155.279 259.019 154.987 260.174C154.562 261.794 154.398 263.472 154.503 265.144V265.144Z" fill="#606161"/>
<path d="M195.657 266.809C198.151 267.097 200.617 267.59 203.03 268.283C202.963 267.573 203.125 266.861 203.494 266.252C204.158 267.579 205.949 267.785 207.443 267.825L218.06 268.123C218.698 268.218 219.349 268.076 219.891 267.725C220.12 267.479 220.297 267.19 220.411 266.874C220.525 266.558 220.574 266.222 220.555 265.887C220.694 262.702 219.526 259.085 216.573 257.805C214.861 257.061 212.91 257.261 211.046 257.387C206.5 257.692 201.557 256.186 197.177 256.637C194.589 256.909 194.941 256.597 194.795 259.503C194.682 261.879 195.206 264.48 195.657 266.809Z" fill="url(#paint12_linear)"/>
<path d="M154.503 265.144C154.542 266.315 154.935 267.446 155.631 268.389C156.6 269.557 158.152 270.048 159.612 270.346C161.773 270.784 163.98 270.944 166.182 270.824C168.04 270.724 170.057 270.333 171.271 268.92C171.715 268.368 172.031 267.725 172.196 267.036C172.362 266.348 172.372 265.631 172.227 264.938C171.923 263.551 171.233 262.279 170.236 261.269C169.247 260.213 167.92 259.132 167.92 257.698C167.992 257.233 168.014 256.762 167.987 256.292C167.847 255.886 167.575 255.538 167.213 255.306C166.852 255.074 166.423 254.97 165.996 255.011C165.154 255.104 164.328 255.31 163.541 255.622C162.12 256.045 160.614 256.095 159.168 255.767C157.94 255.469 157.376 254.706 156.447 255.701C155.611 256.59 155.279 259.019 154.987 260.174C154.562 261.794 154.398 263.472 154.503 265.144V265.144Z" fill="url(#paint13_linear)"/>
<path d="M171.776 149.861H136.58C133.117 149.861 130.309 152.669 130.309 156.132V182.025C130.309 185.488 133.117 188.295 136.58 188.295H171.776C175.239 188.295 178.047 185.488 178.047 182.025V156.132C178.047 152.669 175.239 149.861 171.776 149.861Z" fill="#606161"/>
<path d="M171.776 149.861H136.58C133.117 149.861 130.309 152.669 130.309 156.132V182.025C130.309 185.488 133.117 188.295 136.58 188.295H171.776C175.239 188.295 178.047 185.488 178.047 182.025V156.132C178.047 152.669 175.239 149.861 171.776 149.861Z" fill="url(#paint14_linear)"/>
<defs>
<linearGradient id="paint0_linear" x1="189.699" y1="286.438" x2="205.711" y2="112.681" gradientUnits="userSpaceOnUse">
<stop stop-color="#010101" stop-opacity="0"/>
<stop offset="0.95" stop-color="#010101"/>
</linearGradient>
<linearGradient id="paint1_linear" x1="195.585" y1="91.573" x2="224.457" y2="60.385" gradientUnits="userSpaceOnUse">
<stop stop-color="#010101" stop-opacity="0"/>
<stop offset="1" stop-color="#010101"/>
</linearGradient>
<linearGradient id="paint2_linear" x1="7988.66" y1="4503.85" x2="9014.13" y2="3806.33" gradientUnits="userSpaceOnUse">
<stop stop-color="#010101" stop-opacity="0"/>
<stop offset="1" stop-color="#010101"/>
</linearGradient>
<linearGradient id="paint3_linear" x1="11807.6" y1="12319.9" x2="7536.76" y2="12804.7" gradientUnits="userSpaceOnUse">
<stop stop-color="#367AB9"/>
<stop offset="1" stop-color="#367AB9"/>
</linearGradient>
<linearGradient id="paint4_linear" x1="972.676" y1="1438.38" x2="974.508" y2="1580.98" gradientUnits="userSpaceOnUse">
<stop stop-color="#010101" stop-opacity="0"/>
<stop offset="1" stop-color="#010101"/>
</linearGradient>
<linearGradient id="paint5_linear" x1="1455.96" y1="1710.86" x2="1457.86" y2="1883.79" gradientUnits="userSpaceOnUse">
<stop stop-color="#010101" stop-opacity="0"/>
<stop offset="1" stop-color="#010101"/>
</linearGradient>
<linearGradient id="paint6_linear" x1="4124.92" y1="10940.2" x2="5012.83" y2="11049.4" gradientUnits="userSpaceOnUse">
<stop stop-color="#010101" stop-opacity="0"/>
<stop offset="1" stop-color="#010101"/>
</linearGradient>
<linearGradient id="paint7_linear" x1="3667.91" y1="4159.77" x2="4037.73" y2="4118.35" gradientUnits="userSpaceOnUse">
<stop stop-color="#010101" stop-opacity="0"/>
<stop offset="1" stop-color="#010101"/>
</linearGradient>
<linearGradient id="paint8_linear" x1="5930.21" y1="383.471" x2="6273.91" y2="1510.89" gradientUnits="userSpaceOnUse">
<stop stop-color="#010101" stop-opacity="0"/>
<stop offset="1" stop-color="#010101"/>
</linearGradient>
<linearGradient id="paint9_linear" x1="696.969" y1="414.644" x2="737.12" y2="413.877" gradientUnits="userSpaceOnUse">
<stop stop-color="#010101" stop-opacity="0"/>
<stop offset="1" stop-color="#010101"/>
</linearGradient>
<linearGradient id="paint10_linear" x1="692.706" y1="8356.25" x2="1022.68" y2="8355.19" gradientUnits="userSpaceOnUse">
<stop stop-color="#010101" stop-opacity="0"/>
<stop offset="1" stop-color="#010101"/>
</linearGradient>
<linearGradient id="paint11_linear" x1="5340.19" y1="9835.27" x2="7879.58" y2="10696.9" gradientUnits="userSpaceOnUse">
<stop stop-color="#010101" stop-opacity="0"/>
<stop offset="1" stop-color="#010101"/>
</linearGradient>
<linearGradient id="paint12_linear" x1="6473.53" y1="4924.8" x2="7474.56" y2="4924.8" gradientUnits="userSpaceOnUse">
<stop stop-color="#010101" stop-opacity="0"/>
<stop offset="1" stop-color="#010101"/>
</linearGradient>
<linearGradient id="paint13_linear" x1="3417.37" y1="6579.05" x2="3898.25" y2="6579.05" gradientUnits="userSpaceOnUse">
<stop stop-color="#010101" stop-opacity="0"/>
<stop offset="1" stop-color="#010101"/>
</linearGradient>
<linearGradient id="paint14_linear" x1="5268.77" y1="8224.88" x2="5203.15" y2="11495.2" gradientUnits="userSpaceOnUse">
<stop stop-color="#010101" stop-opacity="0"/>
<stop offset="1" stop-color="#010101"/>
</linearGradient>
</defs>
</svg>
