<svg width="406" height="306" viewBox="0 0 406 306" fill="none" xmlns="http://www.w3.org/2000/svg">
<g clip-path="url(#clip0)">
<path opacity="0.18" d="M126.757 150.806C126.757 161.959 123.815 172.915 118.227 182.568C112.639 192.22 104.603 200.227 94.9311 205.781C85.259 211.335 74.2929 214.239 63.1398 214.199C51.9867 214.16 41.0413 211.179 31.4087 205.557L33.9966 207.902L2.89105 218.577L13.3944 189.787C7.18644 181.828 2.96919 172.501 1.09359 162.583C-0.782017 152.664 -0.261741 142.442 2.61112 132.765C5.48398 123.089 10.6263 114.238 17.6103 106.95C24.5942 99.6625 33.2177 94.1479 42.7631 90.8657C52.3085 87.5834 62.4998 86.6284 72.4888 88.08C82.4779 89.5316 91.9758 93.348 100.192 99.2114C108.408 105.075 115.106 112.816 119.726 121.79C124.347 130.764 126.758 140.712 126.757 150.806V150.806Z" fill="#F3F3F8"/>
<path d="M52.5976 172.157C52.5976 172.157 35.1696 172.51 26.3141 187.057C26.3141 187.057 21.6942 207.73 22.2704 212.138L33.6937 206.962C34.0374 207.902 50.8184 214.534 65.4462 213.877C92.4273 212.674 104.649 199.006 104.649 199.006C104.649 199.006 101.788 179.607 85.7958 175.199C69.8032 170.792 52.5976 172.157 52.5976 172.157Z" fill="#00529E"/>
<path d="M52.476 171.287C52.476 171.287 48.7053 171.864 48.8266 174.593C48.9479 177.322 49.4028 185.541 53.6385 183.57C57.8742 181.599 61.4629 175.634 61.4629 175.634L52.476 171.287Z" fill="white"/>
<path d="M72.0574 171.287C72.0574 171.287 75.8281 171.864 75.7169 174.593C75.6057 177.322 75.1306 185.541 70.905 183.57C66.6794 181.599 63.0806 175.634 63.0806 175.634L72.0574 171.287Z" fill="white"/>
<path d="M38.2222 131.943C38.2222 131.943 33.936 159.066 44.7122 162.533C45.8876 163.232 47.1937 163.682 48.55 163.856C49.9062 164.03 51.2837 163.923 52.5973 163.544V172.116C52.5973 172.116 63.4848 180.345 72.4111 171.54V149.472C72.4111 149.472 71.4002 135.976 68.701 137.412C68.0844 137.756 62.6356 137.19 61.746 127.303C61.746 127.303 49.231 121.743 43.4385 125.564C37.646 129.385 38.2222 131.943 38.2222 131.943Z" fill="#F7AF87"/>
<path d="M35.5836 131.033C36.2388 132.223 37.1269 133.268 38.1951 134.107C39.2633 134.946 40.4896 135.561 41.8007 135.916C43.1223 136.231 44.5096 136.12 45.7643 135.599C47.0189 135.078 48.0766 134.173 48.7861 133.014C49.8686 134.534 51.4723 135.603 53.2917 136.016C55.1111 136.43 57.0191 136.161 58.6525 135.259C60.088 137.28 62.8276 137.836 65.2841 137.685C68.4333 137.543 71.4323 136.298 73.7554 134.167C74.8846 133.088 75.7466 131.76 76.273 130.29C76.7994 128.819 76.9758 127.246 76.7882 125.695C76.2524 122.066 73.5128 119.145 70.5812 116.951C65.947 113.42 60.4539 111.19 54.6695 110.491C49.4432 109.905 41.0931 110.491 37.0899 114.434C33.0867 118.376 32.7228 126.221 35.5836 131.033Z" fill="#DD6034"/>
<path d="M52.5977 163.625C52.5977 163.625 59.1989 161.886 61.6352 158.873C61.6352 158.873 58.2688 172.086 52.5977 172.197V163.625Z" fill="url(#paint0_linear)"/>
<path d="M65.9921 133.884L66.4672 143.235L68.3475 140.667C68.6306 140.273 69.0147 139.848 69.4898 139.929C69.965 140.01 70.0762 140.343 70.2379 140.667C70.971 142.174 71.232 143.867 70.9867 145.525C70.7413 147.182 70.0012 148.727 68.8631 149.957C68.4624 150.303 68.1357 150.726 67.9027 151.201C67.7898 151.612 67.7622 152.042 67.8218 152.464C68.0139 155.194 72.0373 158.398 72.7247 156.417C73.4121 154.435 73.5436 152.282 74.1905 150.281C75.2143 147.706 76.6518 145.315 78.4465 143.204C80.2587 141.086 81.633 138.629 82.4901 135.976C83.1573 133.287 82.6316 130.123 80.4683 128.354C80.062 128.094 79.7171 127.749 79.4574 127.343C79.334 127.02 79.269 126.678 79.2653 126.332C79.0255 122.974 77.6369 119.8 75.3329 117.345C74.1738 116.133 72.7709 115.18 71.2166 114.549C69.6623 113.918 67.9919 113.624 66.3156 113.686C65.7478 113.689 65.188 113.821 64.6779 114.07C64.2133 114.391 63.8213 114.807 63.527 115.289C63.2328 115.771 63.0428 116.31 62.9695 116.87C61.8878 121.925 64.2331 126.979 65.1126 132.115" fill="#DD6034"/>
<path opacity="0.18" d="M266.97 150.806C266.968 161.96 264.024 172.915 258.434 182.567C252.845 192.219 244.809 200.226 235.136 205.78C225.464 211.333 214.497 214.237 203.344 214.198C192.191 214.159 181.245 211.178 171.611 205.557L174.199 207.902L143.063 218.577L153.557 189.787C147.352 181.827 143.137 172.5 141.264 162.583C139.39 152.666 139.912 142.444 142.786 132.769C145.66 123.094 150.803 114.246 157.786 106.959C164.77 99.673 173.393 94.1596 182.937 90.8781C192.481 87.5965 202.671 86.6415 212.659 88.0927C222.647 89.5438 232.144 93.3591 240.36 99.221C248.576 105.083 255.273 112.822 259.894 121.795C264.516 130.767 266.928 140.714 266.93 150.806H266.97Z" fill="#F3F3F8"/>
<path d="M192.517 172.157C192.517 172.157 175.089 172.511 166.233 187.058C166.233 187.058 160.168 207.902 160.775 212.33L174.24 207.923C180.952 211.673 191.031 214.544 205.366 213.897C232.397 212.694 244.569 198.996 244.569 198.996C244.569 198.996 241.708 179.597 225.715 175.189C209.723 170.782 192.517 172.157 192.517 172.157Z" fill="#00529E"/>
<path d="M230.406 148.967C232.599 137.766 234.57 120.479 226.857 116.941L221.803 116.708C221.803 116.708 218.093 108.116 203.232 109.511C188.372 110.906 173.39 123.431 180.164 143.781C183.681 154.334 177.434 169.69 177.434 169.69L199.29 169.609L233.034 168.538C230.014 162.485 229.089 155.601 230.406 148.967V148.967Z" fill="#404040"/>
<path d="M227.09 131.73C227.09 131.73 231.376 158.853 220.6 162.331C219.425 163.03 218.119 163.481 216.762 163.655C215.406 163.829 214.028 163.722 212.715 163.341V171.924C212.715 171.924 201.827 180.153 192.901 171.338V149.199C192.901 149.199 193.912 135.713 196.611 137.149C197.228 137.482 202.676 136.916 203.566 127.04C203.566 127.04 216.081 121.47 221.873 125.301C227.666 129.132 227.09 131.73 227.09 131.73Z" fill="#F7AF87"/>
<path d="M212.715 163.372C212.715 163.372 206.114 161.633 203.677 158.621C203.677 158.621 207.033 171.833 212.715 171.954V163.372Z" fill="url(#paint1_linear)"/>
<path d="M218.123 123.866C214.777 123.866 211.138 124.341 208.782 126.706C205.871 129.628 205.942 134.278 204.668 138.2C203.727 141.189 201.844 143.792 199.3 145.62C198.026 146.518 196.586 147.154 195.064 147.489C193.541 147.824 191.968 147.852 190.434 147.571C190.119 147.538 189.814 147.441 189.538 147.287C189.262 147.132 189.02 146.923 188.827 146.672C188.614 146.218 188.54 145.712 188.615 145.216C188.908 139.656 189.565 133.904 192.436 129.143C194.038 126.51 196.25 124.301 198.885 122.703C200.416 121.726 202.141 121.091 203.94 120.843C207.478 120.439 210.915 122.016 214.12 123.562" fill="#404040"/>
<path d="M192.406 171.287C192.406 171.287 188.635 171.864 188.756 174.593C188.878 177.322 189.333 185.541 193.568 183.57C197.804 181.599 201.393 175.634 201.393 175.634L192.406 171.287Z" fill="white"/>
<path d="M211.987 171.287C211.987 171.287 215.758 171.864 215.647 174.593C215.535 177.322 215.06 185.541 210.835 183.57C206.609 181.599 203.01 175.634 203.01 175.634L211.987 171.287Z" fill="white"/>
<path d="M201.989 188.574C203.145 188.574 204.082 187.637 204.082 186.481C204.082 185.326 203.145 184.389 201.989 184.389C200.833 184.389 199.896 185.326 199.896 186.481C199.896 187.637 200.833 188.574 201.989 188.574Z" fill="white"/>
<path d="M201.989 195.974C203.145 195.974 204.082 195.037 204.082 193.881C204.082 192.725 203.145 191.789 201.989 191.789C200.833 191.789 199.896 192.725 199.896 193.881C199.896 195.037 200.833 195.974 201.989 195.974Z" fill="white"/>
<path d="M201.989 203.373C203.145 203.373 204.082 202.437 204.082 201.281C204.082 200.125 203.145 199.188 201.989 199.188C200.833 199.188 199.896 200.125 199.896 201.281C199.896 202.437 200.833 203.373 201.989 203.373Z" fill="white"/>
<path opacity="0.18" d="M406.01 150.806C406.01 161.959 403.068 172.915 397.48 182.568C391.892 192.22 383.856 200.227 374.184 205.781C364.512 211.335 353.546 214.239 342.393 214.199C331.24 214.16 320.294 211.179 310.662 205.557L313.24 207.902L282.144 218.577L292.678 189.787C286.473 181.827 282.258 172.5 280.385 162.583C278.511 152.666 279.033 142.444 281.907 132.769C284.781 123.094 289.924 114.246 296.907 106.959C303.891 99.673 312.514 94.1596 322.058 90.8781C331.603 87.5965 341.793 86.6415 351.78 88.0927C361.768 89.5438 371.265 93.3591 379.481 99.221C387.697 105.083 394.394 112.822 399.016 121.795C403.637 130.767 406.049 140.714 406.051 150.806H406.01Z" fill="#F3F3F8"/>
<path d="M331.567 172.157C331.567 172.157 314.139 172.511 305.233 187.058C305.233 187.058 299.168 207.902 299.774 212.33L313.239 207.923C319.952 211.673 330.031 214.544 344.375 213.897C371.397 212.694 383.568 198.996 383.568 198.996C383.568 198.996 380.707 179.597 364.715 175.189C348.722 170.782 331.567 172.157 331.567 172.157Z" fill="#00529E"/>
<path d="M332.881 157.317C332.881 157.317 332.659 169.64 331.567 172.157C330.475 174.674 340.129 182.367 350.016 175.341L350.673 172.258C350.673 172.258 348.924 163.695 350.016 156.225C351.108 148.754 332.881 157.317 332.881 157.317Z" fill="#F7AF87"/>
<path d="M332.729 158.934C332.729 158.934 334.458 167.213 341.777 167.79C349.096 168.366 349.692 165.889 349.692 165.889L349.874 155.275L332.729 158.934Z" fill="url(#paint2_linear)"/>
<path d="M321.751 132.287C321.33 131.982 320.848 131.773 320.338 131.676C319.828 131.578 319.303 131.593 318.799 131.721C318.409 131.884 318.063 132.136 317.788 132.458C316.252 134.086 316.333 136.654 316.777 138.847C317.051 140.078 317.423 141.285 317.889 142.456C318.077 143 318.354 143.509 318.708 143.963C319.79 145.267 321.741 145.438 323.409 145.246C323.91 145.247 324.405 145.127 324.851 144.899C325.298 144.67 325.683 144.339 325.977 143.932C326.129 143.584 326.218 143.21 326.239 142.83C326.664 138.413 325.623 134.632 321.751 132.287Z" fill="#F7AF87"/>
<path d="M363.532 134.086C364.775 133.217 366.393 132.549 367.788 133.146C368.334 133.422 368.799 133.835 369.136 134.346C369.473 134.857 369.67 135.447 369.709 136.057C369.778 137.283 369.564 138.507 369.082 139.636C368.606 141.087 367.854 142.433 366.868 143.599C365.862 144.753 364.45 145.477 362.926 145.62C362.164 145.678 361.402 145.518 360.728 145.16C360.053 144.803 359.494 144.261 359.114 143.599C358.743 142.71 358.571 141.751 358.609 140.788C358.539 140.044 358.625 139.294 358.862 138.585C359.458 137.119 362.258 134.966 363.532 134.086Z" fill="#F7AF87"/>
<path d="M362.248 138.241C360.671 151.453 353.322 162.331 342.323 162.331C331.324 162.331 322.408 151.544 322.408 138.241C322.408 124.937 329.485 109.935 340.483 109.935C351.482 109.935 365.463 111.219 362.248 138.241Z" fill="#F7AF87"/>
<path d="M322.418 132.165L322.6 135.117C322.6 135.582 322.752 136.128 323.207 136.259C323.662 136.391 324.107 135.572 324.117 134.965C324.117 132.539 323.359 129.8 324.865 127.889C325.242 127.516 325.58 127.106 325.876 126.666C326.502 125.402 325.552 123.795 326.118 122.501C326.452 121.763 327.19 121.308 327.726 120.691C328.383 119.728 328.884 118.667 329.212 117.548C329.334 117.171 329.57 116.842 329.889 116.607C330.193 116.481 330.513 116.396 330.839 116.355C332.073 116.041 332.8 114.778 333.872 114.121C334.842 113.638 335.927 113.435 337.006 113.534C341.221 113.666 345.609 115.162 349.511 113.534C351.114 115.813 353.551 117.368 356.294 117.861C356.523 117.874 356.743 117.951 356.931 118.083C357.111 118.301 357.23 118.563 357.274 118.841C357.677 119.73 358.247 120.533 358.953 121.207C361.389 124.24 361.338 128.435 361.156 132.327L360.873 138.504L363.027 134.885C363.248 134.462 363.538 134.079 363.886 133.752C364.28 133.419 364.806 133.217 365.048 132.741C365.151 132.505 365.209 132.251 365.22 131.993L365.746 126.696C365.9 125.742 365.866 124.766 365.645 123.825C365.463 123.239 365.139 122.703 364.957 122.117C364.755 121.04 364.724 119.938 364.866 118.852C364.936 118.307 364.887 117.755 364.723 117.231C364.559 116.708 364.284 116.226 363.916 115.819C364.624 113.453 365.291 110.946 364.735 108.54C364.179 106.134 361.945 103.941 359.509 104.305C359.14 104.403 358.755 104.43 358.376 104.386C358.057 104.276 357.764 104.1 357.517 103.87C355.818 102.531 353.744 101.754 351.583 101.646C349.038 101.484 346.486 101.484 343.941 101.646C338.219 102.121 332.214 100.938 326.866 103.001C325.579 103.475 324.392 104.189 323.369 105.103C322.313 106.181 321.405 107.395 320.67 108.712C320.259 109.298 319.954 109.952 319.77 110.643C319.684 111.402 319.684 112.169 319.77 112.928C319.77 115.465 318.476 117.982 318.9 120.459C319.052 121.379 319.426 122.238 319.558 123.158C319.628 123.996 319.628 124.838 319.558 125.675C319.488 127.794 319.86 129.905 320.649 131.872C320.781 132.206 320.993 132.59 321.357 132.62C321.721 132.65 322.095 131.771 322.418 132.165Z" fill="#404040"/>
<path d="M325.32 154.365C325.593 155.587 326.014 156.772 326.573 157.893C328.01 160.33 330.273 162.17 332.952 163.079C335.615 163.964 338.405 164.412 341.211 164.403C344.977 164.504 348.745 164.281 352.473 163.736C353.807 163.544 353.706 163.25 354.778 162.452C356.506 161.158 358.488 158.853 358.821 156.72C359.893 150.382 361.682 141.556 361.419 135.127C359.701 138.301 359.721 145.095 357.224 147.703C355.869 149.108 353.848 149.593 351.927 149.906C345.747 150.93 339.435 150.844 333.286 149.654C331.425 149.443 329.668 148.691 328.231 147.49C326.048 145.337 326.209 141.87 325.734 138.837C325.542 137.503 325.027 135.511 323.561 135.066C323.116 137.725 323.723 140.637 323.783 143.315C323.873 147.045 324.389 150.752 325.32 154.365V154.365Z" fill="#404040"/>
<path d="M320.386 136.522C320.391 136.219 320.353 135.916 320.275 135.622C320.234 135.476 320.149 135.347 320.031 135.251C319.914 135.155 319.769 135.098 319.618 135.087C319.295 135.087 319.062 135.39 318.911 135.673C318.367 136.872 318.313 138.236 318.759 139.474C319.09 140.737 319.87 141.837 320.953 142.567C321.217 142.765 321.532 142.883 321.861 142.91C322.19 142.937 322.52 142.871 322.813 142.719C323.824 142.021 323.429 139.979 322.519 139.413C321.963 139.07 321.509 139.11 321.074 138.504C320.658 137.923 320.419 137.235 320.386 136.522V136.522Z" fill="url(#paint3_linear)"/>
<path d="M365.351 136.522C365.347 136.219 365.385 135.916 365.463 135.622C365.504 135.476 365.589 135.347 365.706 135.251C365.824 135.155 365.968 135.098 366.12 135.087C366.443 135.087 366.676 135.39 366.827 135.673C367.371 136.872 367.425 138.236 366.979 139.474C366.648 140.737 365.868 141.837 364.785 142.567C364.521 142.765 364.206 142.883 363.877 142.91C363.548 142.937 363.218 142.871 362.925 142.719C361.914 142.021 362.319 139.979 363.218 139.413C363.774 139.07 364.229 139.11 364.664 138.504C365.08 137.923 365.319 137.235 365.351 136.522V136.522Z" fill="url(#paint4_linear)"/>
<path d="M354.07 167.112C353.057 166.654 351.941 166.472 350.835 166.587C344.011 166.769 336.955 168.184 330.536 165.869C329.436 166.937 328.628 168.271 328.191 169.741C327.533 172.844 330.152 175.725 332.982 177.14C337.764 179.546 343.364 179.496 348.702 179.162C350.794 179.041 353.059 178.829 354.616 177.413C357.092 175.21 357.224 168.881 354.07 167.112Z" fill="#00529E"/>
<path d="M328.059 172.045C328.059 172.045 325.855 177.312 336.844 177.535C336.844 177.535 325.855 177.757 322.782 180.173C319.709 182.589 312.016 186.319 311.582 191.162C311.147 196.004 308.498 208.954 308.498 208.954L299.754 212.31L305.213 187.037C307.8 183.115 311.161 179.762 315.09 177.185C319.018 174.607 323.431 172.858 328.059 172.045V172.045Z" fill="url(#paint5_linear)"/>
</g>
<defs>
<linearGradient id="paint0_linear" x1="59.4516" y1="174.937" x2="51.9204" y2="144.569" gradientUnits="userSpaceOnUse">
<stop stop-opacity="0"/>
<stop offset="0.99"/>
</linearGradient>
<linearGradient id="paint1_linear" x1="10530.7" y1="2851.79" x2="10667.9" y2="2476.81" gradientUnits="userSpaceOnUse">
<stop stop-opacity="0"/>
<stop offset="0.99"/>
</linearGradient>
<linearGradient id="paint2_linear" x1="6290.43" y1="2836.09" x2="6330.53" y2="2013.79" gradientUnits="userSpaceOnUse">
<stop stop-opacity="0"/>
<stop offset="0.99"/>
</linearGradient>
<linearGradient id="paint3_linear" x1="1927.13" y1="1444.23" x2="1977.24" y2="1439.64" gradientUnits="userSpaceOnUse">
<stop stop-opacity="0"/>
<stop offset="0.99"/>
</linearGradient>
<linearGradient id="paint4_linear" x1="4979.06" y1="1444.23" x2="4928.97" y2="1439.65" gradientUnits="userSpaceOnUse">
<stop stop-opacity="0"/>
<stop offset="0.99"/>
</linearGradient>
<linearGradient id="paint5_linear" x1="12625.2" y1="9936.16" x2="11125.7" y2="5171.57" gradientUnits="userSpaceOnUse">
<stop stop-opacity="0"/>
<stop offset="0.99"/>
</linearGradient>
<clipPath id="clip0">
<rect width="406" height="306" fill="white"/>
</clipPath>
</defs>
</svg>
